<?xml version="1.0" encoding="UTF-8" standalone="no"?>
<svg
   width="290.51428mm"
   height="62.656719mm"
   viewBox="0 0 290.51428 62.656719"
   version="1.1"
   id="svg1"
   xmlns="http://www.w3.org/2000/svg"
   xmlns:svg="http://www.w3.org/2000/svg">
  <defs
     id="defs1">
    <clipPath
       clipPathUnits="userSpaceOnUse"
       id="clipPath152">
      <path
         d="M 0,2436 H 1125 V 0 H 0 Z"
         transform="translate(-965.14322,-2094.4276)"
         id="path152" />
    </clipPath>
  </defs>
  <g
     id="layer1"
     transform="translate(15.638602,-103.67509)">
    <path
       id="path151"
       clip-path="url(#clipPath152)"
       style="fill:#ffffff;fill-opacity:1;fill-rule:nonzero;stroke:none"
       transform="matrix(0.35277776,0,0,-0.35277776,271.66223,154.00357)"
       d="M 0,0 9.109,-34.416 H 1.88 l -1.59,7.279 h -9.161 l -1.591,-7.279 h -7.229 L -8.581,0 Z m -0.916,-21.449 -3.327,15.471 h -0.096 l -3.326,-15.471 z m -25.643299,-2.12108 h 0.098 V -7.9927941e-5 h 6.36 V -34.41508 h -7.904 l -8.482,24.1 h -0.097 v -24.1 h -6.361 V -7.9927941e-5 h 8 z M -54.465083,0 l 9.109,-34.416 h -7.229 l -1.591,7.279 h -9.16 l -1.589,-7.279 h -7.231 l 9.112,34.416 z m -0.916,-21.449 -3.327,15.471 h -0.096 l -3.326,-15.471 z m -14.702133,15.7611981 h -7.519 V -34.415802 h -6.943 v 28.7280001 h -7.52 V 1.9813857e-4 h 21.982 z m -32.246024,5.6872223383 h 6.938001 V -34.41658 h -6.938001 z M -124.98277,0 h 6.939 v -28.728 h 12.292 v -5.688 h -19.231 z m -27.16381,-10.002501 c 0.241,2.2009997 0.771,4.0899997 1.591,5.6649997 0.82,1.573 2,2.802 3.542,3.68700001 1.546,0.884 3.616,1.326 6.219,1.326 2.605,0 4.677,-0.442 6.217,-1.326 1.546,-0.88500001 2.726,-2.11400001 3.542,-3.68700001 0.82,-1.575 1.351,-3.464 1.591,-5.6649997 0.245,-2.2 0.364,-4.603 0.364,-7.206 0,-2.634 -0.119,-5.045 -0.364,-7.229 -0.24,-2.187 -0.771,-4.065 -1.591,-5.641 -0.816,-1.574 -1.996,-2.778 -3.542,-3.614 -1.54,-0.834 -3.612,-1.253 -6.217,-1.253 -2.603,0 -4.673,0.419 -6.219,1.253 -1.542,0.836 -2.722,2.04 -3.542,3.614 -0.82,1.576 -1.35,3.454 -1.591,5.641 -0.241,2.184 -0.36,4.595 -0.36,7.229 0,2.603 0.119,5.006 0.36,7.206 m 6.749,-13.11 c 0.113,-1.622 0.339,-2.941 0.675,-3.952 0.339,-1.013 0.82,-1.751 1.445,-2.218 0.626,-0.465 1.453,-0.698 2.483,-0.698 1.028,0 1.855,0.233 2.485,0.698 0.624,0.467 1.106,1.205 1.444,2.218 0.337,1.011 0.56,2.33 0.674,3.952 0.112,1.623 0.168,3.59 0.168,5.904 0,2.313 -0.056,4.274 -0.168,5.881 -0.114,1.6059997 -0.337,2.9249997 -0.674,3.9529997 -0.338,1.028 -0.82,1.775 -1.444,2.242 -0.63,0.464 -1.457,0.698 -2.485,0.698 -1.03,0 -1.857,-0.234 -2.483,-0.698 -0.625,-0.467 -1.106,-1.214 -1.445,-2.242 -0.336,-1.028 -0.562,-2.347 -0.675,-3.9529997 -0.114,-1.607 -0.17,-3.568 -0.17,-5.881 0,-2.314 0.056,-4.281 0.17,-5.904 M -164.65329,0 c 1.767,0 3.252,-0.297 4.458,-0.893 1.205,-0.593 2.177,-1.373 2.916,-2.336 0.738,-0.965 1.268,-2.066 1.591,-3.302 0.322,-1.237 0.481,-2.499 0.481,-3.784 0,-1.768 -0.266,-3.311 -0.796,-4.628 -0.531,-1.316 -1.269,-2.393 -2.216,-3.229 -0.948,-0.836 -2.097,-1.462 -3.448,-1.879 -1.346,-0.419 -2.841,-0.627 -4.481,-0.627 h -3.712 v -13.738 h -6.94 V 0 Z m -2.121,-15.568 c 1.383,0 2.499,0.417 3.352,1.253 0.847,0.834 1.276,2.135 1.276,3.904 0,1.734 -0.371,3.051 -1.112,3.953 -0.738,0.897 -1.974,1.348 -3.71,1.348 h -2.892 v -10.458 z m -37.18582,5.565499 c 0.241,2.2009997 0.771,4.0899997 1.591,5.6649997 0.816,1.573 1.998,2.802 3.542,3.68700001 1.542,0.884 3.613,1.326 6.219,1.326 2.601,0 4.673,-0.442 6.217,-1.326 1.542,-0.88500001 2.722,-2.11400001 3.542,-3.68700001 0.82,-1.575 1.351,-3.464 1.591,-5.6649997 0.241,-2.2 0.36,-4.603 0.36,-7.206 0,-2.634 -0.119,-5.045 -0.36,-7.229 -0.24,-2.187 -0.771,-4.065 -1.591,-5.641 -0.82,-1.574 -2,-2.778 -3.542,-3.614 -1.544,-0.834 -3.616,-1.253 -6.217,-1.253 -2.606,0 -4.677,0.419 -6.219,1.253 -1.544,0.836 -2.726,2.04 -3.542,3.614 -0.82,1.576 -1.35,3.454 -1.591,5.641 -0.244,2.184 -0.364,4.595 -0.364,7.229 0,2.603 0.12,5.006 0.364,7.206 m 6.746,-13.11 c 0.112,-1.622 0.338,-2.941 0.675,-3.952 0.338,-1.013 0.82,-1.751 1.446,-2.218 0.628,-0.465 1.455,-0.698 2.485,-0.698 1.024,0 1.855,0.233 2.481,0.698 0.625,0.467 1.11,1.205 1.447,2.218 0.335,1.011 0.561,2.33 0.675,3.952 0.112,1.623 0.165,3.59 0.165,5.904 0,2.313 -0.053,4.274 -0.165,5.881 -0.114,1.6059997 -0.34,2.9249997 -0.675,3.9529997 -0.337,1.028 -0.822,1.775 -1.447,2.242 -0.626,0.464 -1.457,0.698 -2.481,0.698 -1.03,0 -1.857,-0.234 -2.485,-0.698 -0.626,-0.467 -1.108,-1.214 -1.446,-2.242 -0.337,-1.028 -0.563,-2.347 -0.675,-3.9529997 -0.111,-1.607 -0.167,-3.568 -0.167,-5.881 0,-2.314 0.056,-4.281 0.167,-5.904 M -217.57627,0 c 2.89,0 5.14,-0.732 6.747,-2.193 1.606,-1.462 2.408,-3.687 2.408,-6.676 0,-2.314 -0.464,-4.202 -1.396,-5.663 -0.934,-1.462 -2.38,-2.403 -4.338,-2.82 v -0.097 c 1.736,-0.256 3.004,-0.818 3.808,-1.686 0.802,-0.868 1.301,-2.266 1.495,-4.194 0.063,-0.644 0.11,-1.342 0.145,-2.097 0.032,-0.755 0.063,-1.599 0.096,-2.531 0.063,-1.831 0.159,-3.229 0.289,-4.193 0.19,-0.965 0.608,-1.622 1.251,-1.976 v -0.29 h -7.519 c -0.353,0.483 -0.575,1.036 -0.675,1.664 -0.096,0.626 -0.159,1.278 -0.19,1.951 l -0.195,6.604 c -0.064,1.35 -0.404,2.411 -1.01,3.181 -0.612,0.771 -1.642,1.158 -3.088,1.158 h -3.71 v -14.558 h -6.94 V 0 Z m -2.992,-15.038 c 1.672,0 2.959,0.392 3.857,1.181 0.901,0.786 1.35,2.112 1.35,3.975 0,3.182 -1.607,4.772 -4.821,4.772 h -3.276 v -9.928 z m -12.82161,9.3501981 h -7.519 V -34.415802 h -6.939 v 28.7280001 h -7.518 V 1.9813857e-4 h 21.976 z m -24.09781,0 h -12.291 v -8.0970001 h 11.569 v -5.688 h -11.569 v -9.255 h 12.773 v -5.688 h -19.713 V 1.9813857e-4 h 19.231 z M -301.92742,0 l 4.914,-24.293 h 0.1 l 4.962,24.293 h 10.266 v -34.416 h -6.36 v 27.475 h -0.099 l -6.118,-27.475 h -5.399 l -6.123,27.475 h -0.094 v -27.475 h -6.364 V 0 Z m -33.54758,0 9.11,-34.416 h -7.229 l -1.591,7.279 h -9.159 l -1.591,-7.279 h -7.229 L -344.054,0 Z m -0.916,-21.449 -3.326,15.471 h -0.095 l -3.326,-15.471 z M -375.96361,0 l 4.914,-24.293 h 0.1 l 4.963,24.293 h 10.266 v -34.416 h -6.362 v 27.475 h -0.096 l -6.12,-27.475 h -5.399 l -6.121,27.475 h -0.096 v -27.475 h -6.364 V 0 Z m -37.61978,-10.002501 c 0.241,2.2009997 0.771,4.0899997 1.587,5.6649997 0.82,1.573 2.002,2.802 3.546,3.68700001 1.542,0.884 3.613,1.326 6.219,1.326 2.601,0 4.673,-0.442 6.217,-1.326 1.542,-0.88500001 2.722,-2.11400001 3.542,-3.68700001 0.817,-1.575 1.347,-3.464 1.591,-5.6649997 0.241,-2.2 0.36,-4.603 0.36,-7.206 0,-2.634 -0.119,-5.045 -0.36,-7.229 -0.244,-2.187 -0.774,-4.065 -1.591,-5.641 -0.82,-1.574 -2,-2.778 -3.542,-3.614 -1.544,-0.834 -3.616,-1.253 -6.217,-1.253 -2.606,0 -4.677,0.419 -6.219,1.253 -1.544,0.836 -2.726,2.04 -3.546,3.614 -0.816,1.576 -1.346,3.454 -1.587,5.641 -0.244,2.184 -0.364,4.595 -0.364,7.229 0,2.603 0.12,5.006 0.364,7.206 m 6.746,-13.11 c 0.112,-1.622 0.338,-2.941 0.675,-3.952 0.338,-1.013 0.82,-1.751 1.446,-2.218 0.628,-0.465 1.455,-0.698 2.485,-0.698 1.024,0 1.852,0.233 2.481,0.698 0.627,0.467 1.106,1.205 1.447,2.218 0.334,1.011 0.561,2.33 0.675,3.952 0.108,1.623 0.164,3.59 0.164,5.904 0,2.313 -0.056,4.274 -0.164,5.881 -0.114,1.6059997 -0.341,2.9249997 -0.675,3.9529997 -0.341,1.028 -0.82,1.775 -1.447,2.242 -0.629,0.464 -1.457,0.698 -2.481,0.698 -1.03,0 -1.857,-0.234 -2.485,-0.698 -0.626,-0.467 -1.108,-1.214 -1.446,-2.242 -0.337,-1.028 -0.563,-2.347 -0.675,-3.9529997 -0.114,-1.607 -0.167,-3.568 -0.167,-5.881 0,-2.314 0.053,-4.281 0.167,-5.904 m -17.66555,-0.457579 h 0.096 V -7.9927941e-5 h 6.362 V -34.41508 h -7.904 l -8.483,24.1 h -0.096 v -24.1 h -6.364 V -7.9927941e-5 h 8.004 z m -43.54935,13.567579 c 0.241,2.2009997 0.771,4.0899997 1.591,5.6649997 0.822,1.573 2.002,2.802 3.542,3.68700001 1.542,0.884 3.616,1.326 6.219,1.326 2.601,0 4.677,-0.442 6.219,-1.326 1.54,-0.88500001 2.72,-2.11400001 3.542,-3.68700001 0.82,-1.575 1.35,-3.464 1.589,-5.6649997 0.241,-2.2 0.362,-4.603 0.362,-7.206 0,-2.634 -0.121,-5.045 -0.362,-7.229 -0.239,-2.187 -0.769,-4.065 -1.589,-5.641 -0.822,-1.574 -2.002,-2.778 -3.542,-3.614 -1.542,-0.834 -3.618,-1.253 -6.219,-1.253 -2.603,0 -4.677,0.419 -6.219,1.253 -1.54,0.836 -2.72,2.04 -3.542,3.614 -0.82,1.576 -1.35,3.454 -1.591,5.641 -0.239,2.184 -0.36,4.595 -0.36,7.229 0,2.603 0.121,5.006 0.36,7.206 m 6.749,-13.11 c 0.113,-1.622 0.337,-2.941 0.675,-3.952 0.337,-1.013 0.82,-1.751 1.447,-2.218 0.626,-0.465 1.453,-0.698 2.481,-0.698 1.028,0 1.855,0.233 2.481,0.698 0.63,0.467 1.11,1.205 1.447,2.218 0.338,1.011 0.561,2.33 0.675,3.952 0.112,1.623 0.17,3.59 0.17,5.904 0,2.313 -0.058,4.274 -0.17,5.881 -0.114,1.6059997 -0.337,2.9249997 -0.675,3.9529997 -0.337,1.028 -0.817,1.775 -1.447,2.242 -0.626,0.464 -1.453,0.698 -2.481,0.698 -1.028,0 -1.855,-0.234 -2.481,-0.698 -0.627,-0.467 -1.11,-1.214 -1.447,-2.242 -0.338,-1.028 -0.562,-2.347 -0.675,-3.9529997 -0.114,-1.607 -0.17,-3.568 -0.17,-5.881 0,-2.314 0.056,-4.281 0.17,-5.904 m 10.726,32.0779997 -4.727,-6.942 h -4.529 l 2.603,6.942 z m -20.1012,-14.6533006 h -7.519 V -34.415802 h -6.943 v 28.7280001 h -7.518 V 1.9813857e-4 h 21.98 z m -39.57105,-18.3170841 c 0,-0.868 0.052,-1.661 0.166,-2.384 0.113,-0.725 0.323,-1.351 0.629,-1.881 0.304,-0.53 0.722,-0.947 1.252,-1.253 0.53,-0.306 1.198,-0.458 2,-0.458 0.834,0 1.51,0.152 2.025,0.458 0.514,0.306 0.923,0.723 1.228,1.253 0.307,0.53 0.515,1.156 0.629,1.881 0.109,0.723 0.167,1.516 0.167,2.384 V 1.1375093e-4 h 6.943 V -24.004886 c 0,-2.185 -0.308,-3.993 -0.916,-5.421 -0.612,-1.432 -1.432,-2.565 -2.462,-3.399 -1.028,-0.836 -2.2,-1.398 -3.516,-1.688 -1.318,-0.288 -2.683,-0.433 -4.098,-0.433 -1.414,0 -2.778,0.129 -4.096,0.386 -1.319,0.256 -2.492,0.779 -3.518,1.565 -1.029,0.789 -1.848,1.906 -2.46,3.352 -0.612,1.446 -0.916,3.325 -0.916,5.638 V 1.1375093e-4 h 6.943 z M -528.27849,0 l 9.11,-34.416 h -7.229 l -1.591,7.279 h -9.159 l -1.591,-7.279 h -7.229 l 9.11,34.416 z m -0.916,-21.449 -3.327,15.471 h -0.094 l -3.326,-15.471 z M -569.29562,0 c 2.411,0 4.351,-0.394 5.833,-1.18 1.477,-0.789 2.627,-1.913 3.443,-3.375 0.82,-1.463 1.376,-3.222 1.665,-5.278 0.29,-2.057 0.435,-4.355 0.435,-6.893 0,-3.021 -0.187,-5.647 -0.556,-7.88 -0.371,-2.234 -1.003,-4.074 -1.904,-5.52 -0.898,-1.446 -2.103,-2.522 -3.613,-3.229 -1.513,-0.707 -3.422,-1.061 -5.737,-1.061 h -10.942 V 0 Z m -1.35,-29.306 c 1.22,0 2.199,0.209 2.941,0.626 0.738,0.417 1.325,1.108 1.757,2.074 0.435,0.963 0.724,2.232 0.869,3.807 0.145,1.574 0.216,3.535 0.216,5.881 0,1.96 -0.064,3.679 -0.191,5.157 -0.132,1.478 -0.396,2.706 -0.796,3.687 -0.402,0.981 -0.997,1.718 -1.784,2.218 -0.79,0.497 -1.839,0.746 -3.157,0.746 h -2.941 V -29.306 Z M -592.52822,0 l 9.109,-34.416 h -7.232 l -1.587,7.279 h -9.159 l -1.591,-7.279 h -7.229 l 9.11,34.416 z m -0.916,-21.449 -3.327,15.471 h -0.094 l -3.326,-15.471 z M -623.76445,0 c 2.411,0 4.355,-0.394 5.833,-1.18 1.477,-0.789 2.627,-1.913 3.447,-3.375 0.82,-1.463 1.375,-3.222 1.661,-5.278 0.29,-2.057 0.435,-4.355 0.435,-6.893 0,-3.021 -0.183,-5.647 -0.554,-7.88 -0.368,-2.234 -1.005,-4.074 -1.903,-5.52 -0.901,-1.446 -2.106,-2.522 -3.616,-3.229 -1.509,-0.707 -3.422,-1.061 -5.734,-1.061 h -10.944 V 0 Z m -1.347,-29.306 c 1.22,0 2.2,0.209 2.938,0.626 0.738,0.417 1.327,1.108 1.761,2.074 0.434,0.963 0.72,2.232 0.865,3.807 0.145,1.574 0.219,3.535 0.219,5.881 0,1.96 -0.067,3.679 -0.193,5.157 -0.127,1.478 -0.393,2.706 -0.795,3.687 -0.404,0.981 -0.997,1.718 -1.783,2.218 -0.787,0.497 -1.841,0.746 -3.156,0.746 h -2.942 v -24.196 z m -22.46079,29.3054204383 h 6.939 V -34.41658 h -6.939 z M -667.3372,-24.6782 c 0,-0.804 0.064,-1.536 0.194,-2.194 0.128,-0.659 0.368,-1.214 0.722,-1.663 0.353,-0.45 0.827,-0.804 1.424,-1.06 0.594,-0.258 1.34,-0.385 2.242,-0.385 1.06,0 2.014,0.344 2.866,1.035 0.852,0.691 1.277,1.761 1.277,3.206 0,0.771 -0.103,1.438 -0.312,2 -0.212,0.561 -0.555,1.069 -1.039,1.518 -0.481,0.451 -1.113,0.861 -1.902,1.23 -0.788,0.37 -1.76,0.746 -2.916,1.133 -1.542,0.513 -2.878,1.077 -4.002,1.686 -1.124,0.61 -2.064,1.326 -2.817,2.146 -0.757,0.818 -1.312,1.766 -1.665,2.842 -0.354,1.077 -0.531,2.323 -0.531,3.7370003 0,3.406 0.948,5.944 2.846,7.616 1.895,1.67100003 4.497,2.50700003 7.806,2.50700003 1.544,0 2.966,-0.17 4.266,-0.508 1.301,-0.337 2.426,-0.884 3.376,-1.63800003 0.948,-0.755 1.687,-1.72 2.217,-2.892 0.53,-1.174 0.795,-2.579 0.795,-4.217 v -0.964 h -6.653 c 0,1.639 -0.29,2.899 -0.866,3.783 -0.58,0.884 -1.545,1.326 -2.891,1.326 -0.771,0 -1.415,-0.113 -1.931,-0.338 -0.512,-0.224 -0.922,-0.523 -1.226,-0.891 -0.308,-0.369 -0.516,-0.795 -0.629,-1.278 -0.114,-0.482 -0.167,-0.981 -0.167,-1.493 0,-1.061 0.223,-1.9530003 0.675,-2.6760003 0.45,-0.723 1.411,-1.39 2.892,-2.001 l 5.349,-2.314 c 1.318,-0.578 2.393,-1.18 3.231,-1.806 0.834,-0.628 1.499,-1.301 2.001,-2.026 0.495,-0.723 0.841,-1.516 1.036,-2.384 0.19,-0.868 0.286,-1.833 0.286,-2.894 0,-3.63 -1.05,-6.273 -3.157,-7.927 -2.103,-1.656 -5.034,-2.484 -8.795,-2.484 -3.921,0 -6.724,0.851 -8.41,2.555 -1.69,1.703 -2.531,4.146 -2.531,7.326 v 1.398 h 6.939 z M -686.90732,0 c 2.895,0 5.143,-0.732 6.748,-2.193 1.609,-1.462 2.411,-3.687 2.411,-6.676 0,-2.314 -0.466,-4.202 -1.396,-5.663 -0.933,-1.462 -2.379,-2.403 -4.337,-2.82 v -0.097 c 1.732,-0.256 3.001,-0.818 3.807,-1.686 0.802,-0.868 1.301,-2.266 1.491,-4.194 0.064,-0.644 0.114,-1.342 0.146,-2.097 0.031,-0.755 0.063,-1.599 0.099,-2.531 0.063,-1.831 0.159,-3.229 0.286,-4.193 0.194,-0.965 0.611,-1.622 1.255,-1.976 v -0.29 h -7.519 c -0.354,0.483 -0.58,1.036 -0.676,1.664 -0.095,0.626 -0.162,1.278 -0.194,1.951 l -0.191,6.604 c -0.063,1.35 -0.403,2.411 -1.011,3.181 -0.612,0.771 -1.64,1.158 -3.086,1.158 h -3.712 v -14.558 h -6.939 V 0 Z m -2.987,-15.038 c 1.672,0 2.955,0.392 3.857,1.181 0.898,0.786 1.35,2.112 1.35,3.975 0,3.182 -1.608,4.772 -4.822,4.772 h -3.277 v -9.928 z m -13.7833,9.3501981 h -12.291 v -8.0970001 h 11.566 v -5.688 h -11.566 v -9.255 h 12.772 v -5.688 h -19.715 V 1.9813857e-4 h 19.234 z m -34.22303,-19.7625841 h 0.145 l 5.108,25.45000046549 h 7.183 L -733.36865,-34.415386 h -8.919 l -7.904,34.41500046549 h 7.423 z m -22.12559,25.4498064383 h 6.943 V -34.41658 h -6.943 z M -771.64285,-23.57008 h 0.099 V -7.9927941e-5 h 6.36 V -34.41508 h -7.905 l -8.481,24.1 h -0.098 v -24.1 h -6.36 V -7.9927941e-5 h 8 z m -35.81025,-0.434806 c 0,-0.868 0.053,-1.661 0.166,-2.384 0.113,-0.725 0.322,-1.351 0.629,-1.881 0.304,-0.53 0.722,-0.947 1.252,-1.253 0.53,-0.306 1.198,-0.458 2.001,-0.458 0.834,0 1.509,0.152 2.025,0.458 0.513,0.306 0.923,0.723 1.227,1.253 0.308,0.53 0.516,1.156 0.629,1.881 0.11,0.723 0.166,1.516 0.166,2.384 V 1.1375093e-4 h 6.943 V -24.004886 c 0,-2.185 -0.307,-3.993 -0.915,-5.421 -0.612,-1.432 -1.432,-2.565 -2.461,-3.399 -1.028,-0.836 -2.199,-1.398 -3.517,-1.688 -1.319,-0.288 -2.683,-0.433 -4.097,-0.433 -1.414,0 -2.779,0.129 -4.097,0.386 -1.319,0.256 -2.489,0.779 -3.518,1.565 -1.029,0.789 -1.849,1.906 -2.46,3.352 -0.608,1.446 -0.916,3.325 -0.916,5.638 V 1.1375093e-4 h 6.943 z m 521.14367,52.983895 c 0.212,1.023 0.559,1.879 1.043,2.564 0.481,0.686 1.116,1.209 1.898,1.567 0.782,0.357 1.743,0.537 2.885,0.537 1.198,0.018 2.192,-0.142 2.987,-0.479 0.793,-0.34 1.417,-0.856 1.884,-1.552 0.463,-0.695 0.793,-1.555 0.983,-2.579 0.195,-1.025 0.289,-2.223 0.289,-3.595 0,-1.333 -0.105,-2.513 -0.317,-3.537 -0.213,-1.023 -0.562,-1.879 -1.044,-2.564 -0.483,-0.686 -1.117,-1.195 -1.897,-1.524 -0.785,-0.327 -1.743,-0.492 -2.885,-0.492 -1.198,-0.019 -2.195,0.13 -2.988,0.449 -0.791,0.319 -1.421,0.82 -1.884,1.508 -0.462,0.686 -0.791,1.545 -0.987,2.581 -0.19,1.032 -0.289,2.227 -0.289,3.579 0,1.333 0.107,2.512 0.322,3.537 m 3.739,-5.739 c 0.037,-0.679 0.129,-1.257 0.274,-1.74 0.144,-0.484 0.364,-0.86 0.653,-1.131 0.29,-0.272 0.675,-0.405 1.16,-0.405 0.813,0 1.372,0.425 1.684,1.275 0.305,0.85 0.461,2.252 0.461,4.203 0,1.953 -0.156,3.353 -0.461,4.203 -0.312,0.85 -0.871,1.276 -1.684,1.276 -0.485,0 -0.87,-0.136 -1.16,-0.406 -0.289,-0.271 -0.509,-0.647 -0.653,-1.13 -0.145,-0.484 -0.237,-1.064 -0.274,-1.739 -0.041,-0.679 -0.059,-1.412 -0.059,-2.204 0,-0.792 0.018,-1.527 0.059,-2.202 m -14.20602,10.00021 v -1.652 h 0.056 c 0.445,0.735 0.945,1.26 1.495,1.58 0.552,0.318 1.231,0.479 2.044,0.479 1.643,0 2.849,-0.644 3.623,-1.929 0.775,-1.285 1.16,-3.377 1.16,-6.276 0,-2.899 -0.385,-4.976 -1.16,-6.233 -0.774,-1.256 -1.98,-1.884 -3.623,-1.884 -0.753,0 -1.396,0.14 -1.926,0.419 -0.534,0.281 -1.012,0.73 -1.435,1.349 h -0.06 v -6.464 h -3.998 v 20.611 z m 0.565,-11.639 c 0.262,-0.861 0.834,-1.29 1.725,-1.29 0.87,0 1.435,0.429 1.697,1.29 0.259,0.859 0.39,2.14 0.39,3.841 0,1.7 -0.131,2.98 -0.39,3.84 -0.262,0.861 -0.827,1.291 -1.697,1.291 -0.891,0 -1.463,-0.43 -1.725,-1.291 -0.261,-0.86 -0.391,-2.14 -0.391,-3.84 0,-1.701 0.13,-2.982 0.391,-3.841 m -22.53945,11.639 v -1.594 h 0.06 c 0.503,0.714 1.068,1.226 1.694,1.536 0.63,0.309 1.379,0.465 2.248,0.465 0.926,0 1.705,-0.214 2.333,-0.64 0.63,-0.424 1.05,-1.043 1.263,-1.854 h 0.056 c 0.312,0.83 0.806,1.454 1.492,1.87 0.689,0.415 1.502,0.624 2.452,0.624 1.334,0 2.313,-0.401 2.941,-1.204 0.63,-0.802 0.942,-1.957 0.942,-3.464 v -11.335 h -3.999 v 10.9 c 0,0.655 -0.123,1.159 -0.364,1.508 -0.24,0.348 -0.644,0.521 -1.201,0.521 -0.637,0 -1.146,-0.212 -1.524,-0.638 -0.375,-0.424 -0.567,-1.101 -0.567,-2.029 v -10.262 h -3.998 v 10.9 c 0,0.655 -0.123,1.159 -0.364,1.508 -0.24,0.348 -0.642,0.521 -1.202,0.521 -0.638,0 -1.145,-0.212 -1.524,-0.638 -0.374,-0.424 -0.564,-1.101 -0.564,-2.029 v -10.262 h -3.998 v 15.596 z m -13.82454,-9.652309 c 0,-0.465 0.031,-0.914 0.098,-1.349 0.067,-0.434 0.181,-0.822 0.336,-1.159 0.152,-0.339 0.357,-0.61 0.609,-0.811 0.249,-0.204 0.557,-0.305 0.924,-0.305 0.679,0 1.171,0.241 1.479,0.723 0.312,0.485 0.523,1.218 0.639,2.205 h 3.597 c -0.078,-1.817 -0.563,-3.2 -1.45,-4.147 -0.891,-0.946 -2.292,-1.419 -4.203,-1.419 -1.453,0 -2.581,0.242 -3.394,0.724 -0.811,0.483 -1.411,1.121 -1.797,1.914 -0.387,0.791 -0.624,1.681 -0.71,2.666 -0.088,0.986 -0.13,1.973 -0.13,2.957 0,1.043 0.071,2.049 0.216,3.015 0.144,0.965 0.438,1.826 0.872,2.579 0.431,0.755 1.057,1.354 1.866,1.798 0.814,0.445 1.895,0.668 3.249,0.668 1.16,0 2.11,-0.189 2.856,-0.566 0.744,-0.376 1.327,-0.908 1.754,-1.594 0.425,-0.688 0.715,-1.516 0.871,-2.494 0.155,-0.976 0.229,-2.063 0.229,-3.261 v -0.898 h -7.911 z m 3.969,5.202 c -0.056,0.454 -0.159,0.841 -0.304,1.159 -0.145,0.32 -0.345,0.562 -0.608,0.725 -0.262,0.164 -0.594,0.247 -1.001,0.247 -0.405,0 -0.738,-0.092 -0.999,-0.275 -0.262,-0.184 -0.471,-0.426 -0.623,-0.725 -0.155,-0.301 -0.269,-0.633 -0.336,-1 -0.067,-0.368 -0.098,-0.736 -0.098,-1.102 v -0.609 h 4.085 c -0.02,0.599 -0.06,1.128 -0.116,1.58 m -10.2028,6.36251 h -4.002 v 3.422 h 4.002 z m 0,-17.509 h -4.002 v 15.596 h 4.002 z m -7.85848,20.061706 v -4.465 h 2.32 v -2.725 h -2.32 v -8.437 c 0,-0.617 0.092,-1.057 0.277,-1.318 0.183,-0.26 0.565,-0.391 1.146,-0.391 0.155,0 0.309,0.004 0.465,0.014 0.152,0.011 0.297,0.025 0.432,0.044 v -2.783 c -0.441,0 -0.874,-0.015 -1.29,-0.043 -0.415,-0.03 -0.853,-0.044 -1.32,-0.044 -0.771,0 -1.402,0.053 -1.898,0.159 -0.491,0.106 -0.869,0.32 -1.131,0.638 -0.261,0.318 -0.438,0.739 -0.533,1.262 -0.099,0.522 -0.146,1.177 -0.146,1.971 v 8.928 h -2.029 v 2.725 h 2.029 v 4.465 z M -361.30524,17.64342 h -4 v 20.699 h 4 z m -18.11893,11.190597 c 0,0.908 0.145,1.667 0.436,2.275 0.29,0.61 0.681,1.103 1.173,1.479 0.494,0.377 1.075,0.647 1.739,0.811 0.668,0.165 1.38,0.248 2.133,0.248 1.198,0 2.162,-0.117 2.897,-0.35 0.735,-0.23 1.305,-0.559 1.711,-0.985 0.407,-0.424 0.682,-0.931 0.829,-1.521 0.144,-0.591 0.215,-1.232 0.215,-1.929 v -8.203 c 0,-0.735 0.034,-1.304 0.101,-1.711 0.067,-0.405 0.199,-0.839 0.389,-1.304 h -3.824 c -0.134,0.251 -0.237,0.518 -0.304,0.797 -0.067,0.281 -0.13,0.555 -0.188,0.827 h -0.06 c -0.463,-0.813 -1.001,-1.34 -1.607,-1.58 -0.608,-0.242 -1.398,-0.363 -2.362,-0.363 -0.697,0 -1.287,0.121 -1.772,0.363 -0.48,0.24 -0.865,0.574 -1.155,1 -0.291,0.425 -0.507,0.903 -0.641,1.436 -0.134,0.53 -0.201,1.057 -0.201,1.58 0,0.733 0.075,1.366 0.23,1.896 0.156,0.532 0.393,0.987 0.71,1.365 0.318,0.376 0.726,0.689 1.22,0.942 0.492,0.249 1.086,0.472 1.783,0.666 l 2.262,0.608 c 0.597,0.154 1.014,0.368 1.243,0.638 0.234,0.271 0.35,0.667 0.35,1.188 0,0.599 -0.141,1.068 -0.42,1.407 -0.283,0.337 -0.76,0.507 -1.435,0.507 -0.619,0 -1.086,-0.183 -1.394,-0.551 -0.306,-0.368 -0.462,-0.859 -0.462,-1.478 v -0.434 h -3.596 z m 6.438,-3.899 c -0.311,-0.126 -0.59,-0.217 -0.842,-0.276 -0.812,-0.173 -1.391,-0.463 -1.739,-0.869 -0.349,-0.405 -0.523,-0.957 -0.523,-1.653 0,-0.599 0.118,-1.112 0.346,-1.536 0.233,-0.426 0.619,-0.637 1.163,-0.637 0.268,0 0.549,0.043 0.838,0.13 0.29,0.086 0.556,0.227 0.799,0.42 0.24,0.193 0.439,0.446 0.593,0.753 0.156,0.309 0.234,0.677 0.234,1.103 v 3.072 c -0.272,-0.212 -0.561,-0.382 -0.869,-0.507 m -27.33752,3.899 c 0,0.908 0.145,1.667 0.436,2.275 0.29,0.61 0.679,1.103 1.173,1.479 0.492,0.377 1.071,0.647 1.739,0.811 0.665,0.165 1.376,0.248 2.132,0.248 1.199,0 2.163,-0.117 2.898,-0.35 0.733,-0.23 1.305,-0.559 1.709,-0.985 0.405,-0.424 0.682,-0.931 0.827,-1.521 0.145,-0.591 0.219,-1.232 0.219,-1.929 v -8.203 c 0,-0.735 0.031,-1.304 0.098,-1.711 0.072,-0.405 0.199,-0.839 0.392,-1.304 h -3.824 c -0.138,0.251 -0.237,0.518 -0.308,0.797 -0.067,0.281 -0.126,0.555 -0.186,0.827 h -0.058 c -0.467,-0.813 -0.999,-1.34 -1.607,-1.58 -0.608,-0.242 -1.398,-0.363 -2.366,-0.363 -0.693,0 -1.283,0.121 -1.768,0.363 -0.483,0.24 -0.869,0.574 -1.159,1 -0.289,0.425 -0.503,0.903 -0.637,1.436 -0.137,0.53 -0.204,1.057 -0.204,1.58 0,0.733 0.078,1.366 0.233,1.896 0.156,0.532 0.393,0.987 0.71,1.365 0.318,0.376 0.726,0.689 1.216,0.942 0.496,0.249 1.09,0.472 1.783,0.666 l 2.262,0.608 c 0.598,0.154 1.014,0.368 1.247,0.638 0.23,0.271 0.348,0.667 0.348,1.188 0,0.599 -0.139,1.068 -0.422,1.407 -0.279,0.337 -0.756,0.507 -1.435,0.507 -0.619,0 -1.081,-0.183 -1.388,-0.551 -0.312,-0.368 -0.464,-0.859 -0.464,-1.478 v -0.434 h -3.596 z m 6.434,-3.899 c -0.307,-0.126 -0.59,-0.217 -0.838,-0.276 -0.812,-0.173 -1.391,-0.463 -1.743,-0.869 -0.345,-0.405 -0.519,-0.957 -0.519,-1.653 0,-0.599 0.114,-1.112 0.347,-1.536 0.234,-0.426 0.618,-0.637 1.159,-0.637 0.273,0 0.552,0.043 0.841,0.13 0.29,0.086 0.556,0.227 0.797,0.42 0.242,0.193 0.441,0.446 0.593,0.753 0.156,0.309 0.234,0.677 0.234,1.103 v 3.072 c -0.27,-0.212 -0.559,-0.382 -0.871,-0.507 m -10.11732,12.770109 v -4.465 h 2.319 v -2.725 h -2.319 v -8.437 c 0,-0.617 0.092,-1.057 0.277,-1.318 0.183,-0.26 0.565,-0.391 1.144,-0.391 0.155,0 0.308,0.004 0.463,0.014 0.156,0.011 0.301,0.025 0.435,0.044 v -2.783 c -0.442,0 -0.873,-0.015 -1.289,-0.043 -0.415,-0.03 -0.853,-0.044 -1.32,-0.044 -0.771,0 -1.402,0.053 -1.898,0.159 -0.491,0.106 -0.869,0.32 -1.131,0.638 -0.257,0.318 -0.438,0.739 -0.534,1.262 -0.098,0.522 -0.145,1.177 -0.145,1.971 v 8.928 h -2.029 v 2.725 h 2.029 v 4.465 z m -10.69688,-4.464907 v -2.087 h 0.06 c 0.407,0.754 0.897,1.357 1.479,1.811 0.579,0.455 1.283,0.683 2.117,0.683 0.112,0 0.235,-0.006 0.36,-0.016 0.127,-0.009 0.248,-0.025 0.364,-0.043 v -3.826 c -0.215,0.019 -0.42,0.033 -0.626,0.042 -0.201,0.011 -0.409,0.016 -0.621,0.016 -0.347,0 -0.697,-0.049 -1.044,-0.145 -0.35,-0.097 -0.668,-0.256 -0.958,-0.479 -0.289,-0.223 -0.519,-0.512 -0.697,-0.87 -0.171,-0.357 -0.257,-0.797 -0.257,-1.318 v -9.364 h -4.001 v 15.596 z m -13.82625,-9.652309 c 0,-0.465 0.033,-0.914 0.103,-1.349 0.067,-0.434 0.178,-0.822 0.333,-1.159 0.156,-0.339 0.357,-0.61 0.608,-0.811 0.25,-0.204 0.561,-0.305 0.925,-0.305 0.679,0 1.171,0.241 1.483,0.723 0.307,0.485 0.519,1.218 0.635,2.205 h 3.596 c -0.078,-1.817 -0.563,-3.2 -1.45,-4.147 -0.886,-0.946 -2.291,-1.419 -4.202,-1.419 -1.45,0 -2.581,0.242 -3.394,0.724 -0.811,0.483 -1.412,1.121 -1.797,1.914 -0.389,0.791 -0.621,1.681 -0.71,2.666 -0.085,0.986 -0.132,1.973 -0.132,2.957 0,1.043 0.074,2.049 0.221,3.015 0.145,0.965 0.434,1.826 0.869,2.579 0.434,0.755 1.057,1.354 1.869,1.798 0.811,0.445 1.892,0.668 3.246,0.668 1.16,0 2.11,-0.189 2.856,-0.566 0.742,-0.376 1.33,-0.908 1.754,-1.594 0.423,-0.688 0.715,-1.516 0.87,-2.494 0.152,-0.976 0.232,-2.063 0.232,-3.261 v -0.898 h -7.915 z m 3.971,5.202 c -0.056,0.454 -0.159,0.841 -0.304,1.159 -0.145,0.32 -0.348,0.562 -0.608,0.725 -0.263,0.164 -0.594,0.247 -1.001,0.247 -0.405,0 -0.739,-0.092 -1.001,-0.275 -0.261,-0.184 -0.465,-0.426 -0.621,-0.725 -0.155,-0.301 -0.266,-0.633 -0.333,-1 -0.07,-0.368 -0.103,-0.736 -0.103,-1.102 v -0.609 h 4.087 c -0.02,0.599 -0.056,1.128 -0.116,1.58 m -10.2031,6.36251 h -4.002 v 3.422 h 4.002 z m 0,-17.509 h -4.002 v 15.596 h 4.002 z m -14.64197,20.699898 v -6.552 h 0.06 c 0.425,0.618 0.901,1.081 1.435,1.391 0.53,0.309 1.175,0.465 1.928,0.465 1.643,0 2.852,-0.644 3.623,-1.929 0.775,-1.285 1.158,-3.377 1.158,-6.276 0,-2.899 -0.383,-4.976 -1.158,-6.233 -0.771,-1.256 -1.98,-1.884 -3.623,-1.884 -0.809,0 -1.492,0.145 -2.044,0.435 -0.552,0.29 -1.046,0.801 -1.491,1.536 h -0.06 v -1.652 h -3.826 v 20.699 z m 0.393,-16.742 c 0.262,-0.861 0.838,-1.29 1.725,-1.29 0.87,0 1.435,0.429 1.697,1.29 0.261,0.859 0.391,2.14 0.391,3.841 0,1.7 -0.13,2.98 -0.391,3.84 -0.262,0.861 -0.827,1.291 -1.697,1.291 -0.887,0 -1.463,-0.43 -1.725,-1.291 -0.259,-0.86 -0.393,-2.14 -0.393,-3.84 0,-1.701 0.134,-2.982 0.393,-3.841 m -18.36413,7.232699 c 0,0.908 0.145,1.667 0.434,2.275 0.29,0.61 0.683,1.103 1.173,1.479 0.496,0.377 1.075,0.647 1.743,0.811 0.664,0.165 1.376,0.248 2.129,0.248 1.198,0 2.163,-0.117 2.897,-0.35 0.737,-0.23 1.305,-0.559 1.713,-0.985 0.405,-0.424 0.682,-0.931 0.827,-1.521 0.145,-0.591 0.215,-1.232 0.215,-1.929 v -8.203 c 0,-0.735 0.035,-1.304 0.103,-1.711 0.067,-0.405 0.198,-0.839 0.391,-1.304 h -3.828 c -0.134,0.251 -0.237,0.518 -0.304,0.797 -0.067,0.281 -0.13,0.555 -0.186,0.827 h -0.062 c -0.461,-0.813 -0.995,-1.34 -1.607,-1.58 -0.608,-0.242 -1.397,-0.363 -2.362,-0.363 -0.697,0 -1.287,0.121 -1.767,0.363 -0.485,0.24 -0.87,0.574 -1.16,1 -0.289,0.425 -0.501,0.903 -0.64,1.436 -0.134,0.53 -0.201,1.057 -0.201,1.58 0,0.733 0.077,1.366 0.23,1.896 0.155,0.532 0.392,0.987 0.714,1.365 0.317,0.376 0.721,0.689 1.215,0.942 0.492,0.249 1.086,0.472 1.783,0.666 l 2.262,0.608 c 0.597,0.154 1.014,0.368 1.244,0.638 0.233,0.271 0.351,0.667 0.351,1.188 0,0.599 -0.141,1.068 -0.422,1.407 -0.279,0.337 -0.76,0.507 -1.435,0.507 -0.619,0 -1.081,-0.183 -1.392,-0.551 -0.308,-0.368 -0.463,-0.859 -0.463,-1.478 v -0.434 h -3.595 z m 6.436,-3.899 c -0.311,-0.126 -0.59,-0.217 -0.841,-0.276 -0.81,-0.173 -1.392,-0.463 -1.74,-0.869 -0.346,-0.405 -0.523,-0.957 -0.523,-1.653 0,-0.599 0.118,-1.112 0.351,-1.536 0.234,-0.426 0.617,-0.637 1.159,-0.637 0.269,0 0.552,0.043 0.841,0.13 0.29,0.086 0.556,0.227 0.797,0.42 0.239,0.193 0.438,0.446 0.593,0.753 0.156,0.309 0.234,0.677 0.234,1.103 v 3.072 c -0.274,-0.212 -0.563,-0.382 -0.871,-0.507 m -27.3355,3.899 c 0,0.908 0.145,1.667 0.434,2.275 0.29,0.61 0.683,1.103 1.173,1.479 0.496,0.377 1.072,0.647 1.74,0.811 0.667,0.165 1.379,0.248 2.132,0.248 1.198,0 2.163,-0.117 2.899,-0.35 0.735,-0.23 1.303,-0.559 1.711,-0.985 0.405,-0.424 0.682,-0.931 0.823,-1.521 0.149,-0.591 0.219,-1.232 0.219,-1.929 v -8.203 c 0,-0.735 0.033,-1.304 0.103,-1.711 0.067,-0.405 0.198,-0.839 0.39,-1.304 h -3.827 c -0.134,0.251 -0.237,0.518 -0.304,0.797 -0.067,0.281 -0.13,0.555 -0.186,0.827 h -0.06 c -0.463,-0.813 -1.001,-1.34 -1.609,-1.58 -0.608,-0.242 -1.397,-0.363 -2.362,-0.363 -0.697,0 -1.287,0.121 -1.767,0.363 -0.485,0.24 -0.874,0.574 -1.163,1 -0.29,0.425 -0.502,0.903 -0.637,1.436 -0.134,0.53 -0.201,1.057 -0.201,1.58 0,0.733 0.074,1.366 0.23,1.896 0.155,0.532 0.392,0.987 0.711,1.365 0.317,0.376 0.724,0.689 1.22,0.942 0.49,0.249 1.084,0.472 1.781,0.666 l 2.262,0.608 c 0.598,0.154 1.01,0.368 1.244,0.638 0.233,0.271 0.351,0.667 0.351,1.188 0,0.599 -0.141,1.068 -0.422,1.407 -0.282,0.337 -0.76,0.507 -1.435,0.507 -0.617,0 -1.081,-0.183 -1.392,-0.551 -0.308,-0.368 -0.463,-0.859 -0.463,-1.478 v -0.434 h -3.595 z m 6.436,-3.899 c -0.311,-0.126 -0.59,-0.217 -0.841,-0.276 -0.813,-0.173 -1.392,-0.463 -1.738,-0.869 -0.351,-0.405 -0.525,-0.957 -0.525,-1.653 0,-0.599 0.118,-1.112 0.351,-1.536 0.23,-0.426 0.616,-0.637 1.155,-0.637 0.273,0 0.552,0.043 0.842,0.13 0.289,0.086 0.555,0.227 0.8,0.42 0.24,0.193 0.438,0.446 0.593,0.753 0.156,0.309 0.234,0.677 0.234,1.103 v 3.072 c -0.274,-0.212 -0.563,-0.382 -0.871,-0.507 m -16.34905,-2.711621 c 0,-0.675 0.177,-1.221 0.534,-1.637 0.356,-0.415 0.876,-0.622 1.551,-0.622 0.619,0 1.111,0.154 1.479,0.463 0.367,0.309 0.552,0.773 0.552,1.391 0,0.502 -0.147,0.884 -0.436,1.145 -0.29,0.26 -0.628,0.469 -1.014,0.625 l -2.814,1.014 c -1.099,0.385 -1.93,0.932 -2.493,1.637 -0.557,0.705 -0.838,1.608 -0.838,2.711 0,0.637 0.103,1.241 0.319,1.812 0.212,0.569 0.548,1.067 1.015,1.492 0.462,0.426 1.057,0.763 1.781,1.016 0.724,0.249 1.598,0.377 2.623,0.377 1.817,0 3.16,-0.388 4.031,-1.16 0.868,-0.774 1.303,-1.867 1.303,-3.277 v -0.638 h -3.595 c 0,0.813 -0.13,1.407 -0.389,1.783 -0.261,0.377 -0.72,0.566 -1.377,0.566 -0.504,0 -0.945,-0.141 -1.32,-0.421 -0.378,-0.281 -0.566,-0.7 -0.566,-1.26 0,-0.387 0.121,-0.735 0.362,-1.045 0.242,-0.309 0.702,-0.569 1.377,-0.781 l 2.409,-0.813 c 1.254,-0.424 2.145,-0.981 2.664,-1.667 0.523,-0.685 0.782,-1.619 0.782,-2.798 0,-0.83 -0.145,-1.55 -0.434,-2.16 -0.292,-0.607 -0.69,-1.115 -1.202,-1.521 -0.514,-0.405 -1.122,-0.695 -1.824,-0.87 -0.708,-0.173 -1.486,-0.26 -2.337,-0.26 -1.12,0 -2.054,0.106 -2.796,0.318 -0.743,0.212 -1.334,0.532 -1.769,0.956 -0.434,0.426 -0.738,0.944 -0.916,1.552 -0.172,0.608 -0.257,1.291 -0.257,2.045 v 0.55 h 3.595 z m -16.9014,6.610621 c 0,0.908 0.145,1.667 0.434,2.275 0.292,0.61 0.683,1.103 1.175,1.479 0.491,0.377 1.072,0.647 1.739,0.811 0.668,0.165 1.376,0.248 2.133,0.248 1.194,0 2.162,-0.117 2.897,-0.35 0.731,-0.23 1.305,-0.559 1.711,-0.985 0.403,-0.424 0.678,-0.931 0.823,-1.521 0.147,-0.591 0.221,-1.232 0.221,-1.929 v -8.203 c 0,-0.735 0.031,-1.304 0.098,-1.711 0.067,-0.405 0.199,-0.839 0.393,-1.304 h -3.825 c -0.137,0.251 -0.237,0.518 -0.304,0.797 -0.071,0.281 -0.13,0.555 -0.192,0.827 h -0.056 c -0.463,-0.813 -1.001,-1.34 -1.609,-1.58 -0.608,-0.242 -1.395,-0.363 -2.364,-0.363 -0.693,0 -1.283,0.121 -1.768,0.363 -0.483,0.24 -0.869,0.574 -1.158,1 -0.292,0.425 -0.504,0.903 -0.638,1.436 -0.137,0.53 -0.204,1.057 -0.204,1.58 0,0.733 0.078,1.366 0.233,1.896 0.156,0.532 0.391,0.987 0.71,1.365 0.318,0.376 0.726,0.689 1.216,0.942 0.496,0.249 1.09,0.472 1.781,0.666 l 2.263,0.608 c 0.602,0.154 1.015,0.368 1.248,0.638 0.23,0.271 0.346,0.667 0.346,1.188 0,0.599 -0.137,1.068 -0.42,1.407 -0.278,0.337 -0.756,0.507 -1.435,0.507 -0.619,0 -1.082,-0.183 -1.39,-0.551 -0.31,-0.368 -0.462,-0.859 -0.462,-1.478 v -0.434 h -3.596 z m 6.434,-3.899 c -0.307,-0.126 -0.586,-0.217 -0.841,-0.276 -0.809,-0.173 -1.39,-0.463 -1.74,-0.869 -0.345,-0.405 -0.519,-0.957 -0.519,-1.653 0,-0.599 0.112,-1.112 0.346,-1.536 0.233,-0.426 0.619,-0.637 1.16,-0.637 0.271,0 0.552,0.043 0.841,0.13 0.29,0.086 0.556,0.227 0.799,0.42 0.24,0.193 0.438,0.446 0.593,0.753 0.152,0.309 0.23,0.677 0.23,1.103 v 3.072 c -0.268,-0.212 -0.557,-0.382 -0.869,-0.507 m -13.54895,9.710506 c -0.362,0.686 -1.012,1.031 -1.958,1.031 -0.522,0 -0.952,-0.142 -1.291,-0.421 -0.337,-0.281 -0.604,-0.735 -0.796,-1.363 -0.194,-0.627 -0.328,-1.449 -0.406,-2.464 -0.078,-1.014 -0.117,-2.257 -0.117,-3.726 0,-1.564 0.052,-2.829 0.159,-3.797 0.107,-0.966 0.271,-1.714 0.49,-2.246 0.225,-0.532 0.507,-0.889 0.842,-1.073 0.34,-0.184 0.733,-0.276 1.175,-0.276 0.367,0 0.713,0.062 1.028,0.189 0.322,0.126 0.597,0.377 0.827,0.753 0.233,0.377 0.418,0.909 0.552,1.595 0.134,0.686 0.205,1.589 0.205,2.709 h 4.171 c 0,-1.12 -0.085,-2.182 -0.258,-3.186 -0.176,-1.006 -0.498,-1.885 -0.972,-2.639 -0.475,-0.753 -1.142,-1.344 -2,-1.768 -0.86,-0.426 -1.977,-0.638 -3.349,-0.638 -1.565,0 -2.814,0.251 -3.739,0.753 -0.927,0.502 -1.638,1.227 -2.132,2.174 -0.493,0.947 -0.809,2.077 -0.954,3.392 -0.147,1.313 -0.221,2.764 -0.221,4.348 0,1.566 0.074,3.01 0.221,4.334 0.145,1.324 0.461,2.459 0.954,3.408 0.494,0.945 1.205,1.684 2.132,2.216 0.925,0.531 2.174,0.798 3.739,0.798 1.488,0 2.663,-0.243 3.521,-0.725 0.859,-0.483 1.502,-1.098 1.931,-1.84 0.423,-0.744 0.689,-1.547 0.794,-2.408 0.107,-0.859 0.16,-1.666 0.16,-2.419 h -4.176 c 0,1.507 -0.175,2.603 -0.532,3.289 M -319.1854,48.77541 h 31.296 l -41.729,93.888 h -31.295 l -5.215,-11.737 -2.637,5.932 c -1.569,3.47 -4.469,5.801 -7.792,5.805 h -52.166 c -3.32,0 -6.219,-2.326 -7.789,-5.789 l -2.644,-5.948 -5.214,11.737 h -31.296 l -41.731,-93.888 h 31.3 l 26.078,58.68 5.218,-11.736 -20.865,-46.944 h 31.296 l 5.214,11.736 2.644,-5.947 c 1.57,-3.465 4.469,-5.789 7.789,-5.789 h 52.163 c 3.323,0 6.229,2.333 7.795,5.808 l 2.637,5.927 5.215,-11.735 h 31.295 l -20.863,46.942 5.218,11.738 z m -92.163,74.302 v -0.004 c 0.921,2.065 2.576,3.813 4.8,4.811 1.269,0.571 2.597,0.838 3.906,0.838 3.634,-0.003 7.106,-2.093 8.693,-5.624 v 0.005 l 12.17,-27.384 -12.159,-27.36 v 0.004 c -0.919,-2.065 -2.574,-3.811 -4.798,-4.812 -1.269,-0.569 -2.594,-0.839 -3.902,-0.839 -3.638,0 -7.11,2.093 -8.697,5.626 v -0.004 l -12.17,27.381 z m 39.282,-67.015 c -1.027,-2.264 -2.748,-3.667 -4.494,-3.667 h -52.163 c -1.743,0 -3.461,1.398 -4.487,3.65 l -36.887,82.998 h 23.374 l 32.079,-72.179 0.055,0.01 -0.047,-0.019 c 2.117,-4.716 6.83,-7.763 11.998,-7.763 1.866,0 3.676,0.391 5.388,1.158 2.952,1.327 5.301,3.685 6.621,6.639 l 10.83,24.372 11.687,-26.294 z m 19.605,44.113 v 0 l -11.687,26.294 v 0.001 l 5.589,12.573 h 23.374 z" />
  </g>
</svg>
