<?xml version="1.0" encoding="UTF-8" standalone="no"?>
<svg
   width="149.88681mm"
   height="61.316303mm"
   viewBox="0 0 149.88681 61.316303"
   version="1.1"
   id="svg1"
   xmlns="http://www.w3.org/2000/svg"
   xmlns:svg="http://www.w3.org/2000/svg">
  <defs
     id="defs1">
    <clipPath
       clipPathUnits="userSpaceOnUse"
       id="clipPath20">
      <path
         d="M 0,2436 H 1125 V 0 H 0 Z"
         transform="translate(-717.00132,-1131.0952)"
         id="path20" />
    </clipPath>
  </defs>
  <g
     id="layer1"
     transform="translate(-27.116492,-128.38827)">
    <path
       id="path19"
       d="m 0,0 h 57.937 l -77.25,173.81 H -77.25 l -9.659,-21.727 -4.879,10.981 c -2.902,6.423 -8.272,10.739 -14.42,10.746 h -96.574 c -6.145,0 -11.512,-4.307 -14.421,-10.717 l -4.891,-11.01 -9.656,21.727 h -57.937 L -366.939,0 h 57.936 l 48.284,108.632 9.656,-21.727 L -289.687,0 h 57.937 l 9.656,21.727 4.891,-11.011 C -214.294,4.302 -208.927,0 -202.782,0 h 96.561 c 6.158,0 11.534,4.319 14.436,10.752 L -86.906,21.724 -77.25,0 h 57.937 l -38.625,86.901 9.656,21.731 z m -170.617,137.551 v -0.006 c 1.705,3.821 4.764,7.057 8.881,8.906 2.352,1.057 4.813,1.551 7.234,1.551 6.731,-0.006 13.154,-3.874 16.093,-10.412 v 0.01 l 22.532,-50.695 -22.51,-50.65 v 0.007 c -1.704,-3.822 -4.764,-7.055 -8.88,-8.907 -2.349,-1.053 -4.807,-1.554 -7.225,-1.554 -6.734,0 -13.164,3.874 -16.102,10.415 v -0.007 l -22.529,50.689 z M -97.9,13.491 c -1.898,-4.192 -5.085,-6.79 -8.321,-6.79 h -96.561 c -3.227,0 -6.407,2.588 -8.305,6.757 l -68.29,153.65 h 43.271 l 59.386,-133.621 0.095,0.02 -0.082,-0.036 c 3.924,-8.731 12.644,-14.372 22.215,-14.372 3.449,0 6.806,0.724 9.97,2.144 5.465,2.457 9.817,6.822 12.254,12.29 h 0.004 l 20.055,45.119 21.635,-48.676 z m 36.294,81.663 v 0 l -21.635,48.676 v 0.003 l 10.343,23.275 h 43.271 z"
       style="fill:#000000;fill-opacity:1;fill-rule:nonzero;stroke:none"
       transform="matrix(0.35277776,0,0,-0.35277776,156.56441,189.70457)"
       clip-path="url(#clipPath20)" />
  </g>
</svg>
